# xmcd
#
# Track frame offsets:
#	150
#	15591
#	31259
#	47872
#	64258
#	77876
#	94507
#	108025
#	126155
#	145946
#
# Disc length: 2169 seconds
#
# Revision: 1
# Processed by: cddbd v1.4PL0 Copyright (c) Steve Scherf et al.
# Submitted via: EasyCDDAExtractor 5.0.7
#
DISCID=7c08770a
DTITLE=John Anderson - Countrified
DYEAR=1986
DGENRE=Country
TTITLE0=Countrified
TTITLE1=What's So Different About You
TTITLE2=Yellow Creek
TTITLE3=If I Could Have My Way
TTITLE4=Do You Have a Garter Belt
TTITLE5=Honky Tonk Crowd
TTITLE6=The Fightin' Side of Me
TTITLE7=Wife's Little Pleasures
TTITLE8=You Can't Judge a Book (fy the Cover)
TTITLE9=Peace in the Valley
EXTD=
EXTT0=
EXTT1=
EXTT2=
EXTT3=
EXTT4=
EXTT5=
EXTT6=
EXTT7=
EXTT8=
EXTT9=
PLAYORDER=
